<?xml version="1.0" standalone="no"?>
<!DOCTYPE svg PUBLIC "-//W3C//DTD SVG 20010904//EN"
 "http://www.w3.org/TR/2001/REC-SVG-20010904/DTD/svg10.dtd">
<svg version="1.0" xmlns="http://www.w3.org/2000/svg"
 width="1279.000000pt" height="716.000000pt" viewBox="0 0 1279.000000 716.000000"
 preserveAspectRatio="xMidYMid meet">

<g transform="translate(0.000000,716.000000) scale(0.100000,-0.100000)"
fill="#000000" stroke="none">
<path d="M2396 7148 c19 -32 90 -124 101 -131 7 -4 13 -14 13 -21 0 -7 14 -25
30 -41 17 -16 30 -36 30 -45 0 -10 17 -37 38 -61 63 -73 194 -244 274 -357 13
-18 30 -41 38 -52 8 -11 34 -46 58 -77 23 -32 77 -104 120 -161 42 -57 86
-116 97 -132 76 -105 105 -151 105 -163 0 -12 -111 -107 -126 -107 -4 0 -21
-12 -39 -27 -17 -16 -42 -35 -54 -43 -12 -8 -75 -54 -139 -102 -64 -48 -132
-98 -150 -110 -18 -13 -45 -32 -60 -44 -15 -11 -61 -44 -102 -73 -84 -58 -133
-93 -330 -233 -181 -128 -215 -152 -280 -195 -30 -20 -75 -53 -100 -73 -25
-20 -70 -52 -100 -72 -30 -20 -110 -76 -178 -124 -67 -49 -152 -109 -187 -134
-62 -43 -227 -162 -270 -195 -49 -37 -97 -72 -136 -100 -23 -16 -62 -45 -86
-62 -24 -18 -46 -33 -49 -33 -4 0 -21 -12 -39 -27 -27 -24 -198 -147 -318
-230 -18 -12 -57 -40 -87 -63 -30 -22 -71 -51 -90 -65 -19 -14 -60 -43 -90
-65 -30 -23 -84 -61 -120 -85 -36 -24 -84 -58 -108 -75 -23 -16 -47 -30 -52
-30 -6 0 -10 -85 -10 -220 0 -121 3 -220 8 -220 4 0 23 14 42 30 19 17 40 35
46 40 18 14 246 169 314 213 47 30 115 80 120 86 3 4 28 23 55 41 28 19 56 40
64 48 8 8 38 25 68 39 42 20 60 36 80 72 32 55 88 116 125 136 15 8 29 23 32
33 4 10 25 27 48 38 l42 21 66 -24 c37 -12 80 -29 96 -38 16 -8 38 -15 49 -15
11 0 30 -7 41 -14 12 -8 43 -20 70 -26 77 -18 154 -43 154 -52 0 -4 8 -8 18
-8 10 0 27 -6 38 -14 16 -12 29 -12 60 -4 21 5 63 13 93 17 54 6 54 6 27 20
-14 8 -25 19 -23 25 5 16 46 19 63 6 18 -16 39 0 48 35 9 34 36 32 71 -5 27
-29 28 -31 15 -70 -7 -22 -18 -41 -24 -42 -6 0 -33 -2 -61 -3 -88 -4 -169 -24
-184 -45 -8 -12 -25 -20 -42 -20 -18 0 -32 -7 -39 -20 -6 -11 -19 -20 -29 -20
-9 0 -27 -11 -39 -25 -12 -14 -28 -25 -36 -25 -8 0 -16 -7 -20 -15 -3 -8 -11
-15 -18 -15 -7 0 -21 -9 -33 -20 -47 -45 -66 -60 -74 -60 -6 0 -22 -11 -37
-25 -15 -14 -31 -25 -36 -25 -5 0 -28 -18 -51 -41 -23 -23 -64 -58 -92 -79
-39 -29 -255 -231 -297 -277 -14 -15 -77 -78 -88 -88 -6 -5 -66 -67 -133 -137
-111 -116 -167 -176 -237 -257 -14 -16 -50 -57 -80 -92 -30 -34 -58 -70 -62
-80 -4 -11 -14 -19 -22 -19 -8 0 -18 -9 -21 -20 -3 -11 -12 -20 -18 -20 -7 0
-39 -34 -72 -75 -33 -41 -65 -75 -72 -75 -10 0 -13 -39 -13 -165 0 -136 2
-165 14 -165 23 0 54 48 72 109 26 92 41 114 161 238 63 65 134 147 158 183
24 36 88 111 142 166 54 56 119 123 145 150 130 135 440 433 481 463 26 18 53
45 60 60 6 14 22 30 35 36 12 6 20 16 17 23 -3 8 -5 18 -5 23 0 20 -22 7 -41
-25 -11 -19 -34 -40 -51 -47 -28 -11 -44 -24 -109 -84 -9 -8 -19 -15 -23 -15
-3 0 -26 -19 -50 -43 -25 -23 -74 -69 -111 -102 -37 -33 -87 -79 -112 -102
-24 -24 -48 -43 -53 -43 -6 0 -10 -6 -10 -13 0 -8 -20 -28 -45 -46 -25 -18
-45 -28 -45 -23 0 10 53 66 113 120 20 18 37 37 37 41 0 5 21 31 48 58 26 27
59 62 73 79 38 41 208 197 227 208 10 5 31 24 49 43 17 18 36 33 42 33 6 0 15
9 21 19 5 11 21 26 33 33 56 32 97 61 97 69 0 5 9 9 20 9 27 0 38 -29 17 -45
-9 -6 -21 -23 -26 -38 -5 -14 -22 -31 -37 -39 -32 -15 -42 -36 -21 -44 21 -8
198 107 192 124 -11 31 69 112 110 112 7 0 20 11 29 25 9 14 23 25 30 25 7 0
33 11 57 24 78 42 147 42 172 0 12 -20 35 -17 42 6 8 27 40 25 59 -2 16 -22
16 -22 16 14 0 29 -9 47 -40 83 -44 51 -48 63 -24 72 10 4 25 -4 40 -21 14
-14 29 -26 33 -26 5 0 11 -10 14 -21 5 -17 10 -20 29 -14 61 19 72 17 108 -19
19 -19 41 -36 48 -36 19 0 25 -25 12 -49 -11 -21 -12 -21 -58 13 -26 19 -55
42 -64 50 -10 9 -20 11 -23 6 -7 -12 8 -42 30 -60 11 -9 14 -22 10 -42 -4 -15
-2 -43 4 -60 5 -18 11 -72 13 -119 l3 -86 28 8 c42 12 60 1 55 -33 -4 -23 2
-36 23 -57 30 -31 131 -67 151 -55 7 4 51 8 99 8 106 1 128 14 173 102 37 70
101 124 147 124 29 0 259 -96 304 -127 11 -7 29 -13 40 -13 11 0 34 -9 50 -20
17 -11 37 -20 45 -20 8 0 32 -9 52 -20 21 -11 57 -22 80 -26 24 -3 65 -12 92
-20 65 -18 178 -18 261 1 89 21 175 60 175 79 0 9 5 16 10 16 6 0 13 8 17 18
3 9 14 26 24 37 9 11 37 56 61 100 l43 80 0 140 c0 153 -2 161 -73 302 -64
126 -80 144 -174 193 -79 41 -130 61 -277 105 -29 9 -113 23 -185 31 -218 24
-236 29 -236 71 0 14 40 108 89 207 110 222 113 230 102 260 -9 22 -38 36
-141 68 -19 5 -46 18 -60 27 -14 9 -45 25 -70 35 -25 10 -58 24 -73 32 -16 8
-35 14 -42 14 -7 0 -15 6 -18 14 -3 8 -21 17 -39 21 -18 4 -44 16 -57 26 -13
11 -31 19 -40 19 -23 0 -81 62 -81 86 0 20 42 56 190 166 30 22 72 54 92 72
58 49 95 76 105 76 5 0 27 17 49 38 22 20 62 53 88 72 26 19 62 47 81 63 18
15 39 27 48 27 8 0 21 7 28 16 8 9 30 27 49 39 19 13 75 61 123 108 79 76 87
86 78 108 -5 13 -18 33 -30 43 -11 11 -21 24 -21 31 0 6 -22 35 -49 64 -26 28
-56 69 -66 90 -9 21 -27 43 -40 49 -12 6 -26 23 -29 38 -4 15 -17 40 -29 55
-12 15 -38 51 -57 79 -31 45 -66 92 -115 152 -7 9 -22 29 -31 45 -10 15 -28
39 -40 53 -12 14 -45 59 -73 100 -28 41 -71 98 -96 125 -54 60 -78 126 -73
198 2 29 7 59 11 67 5 10 -6 34 -30 67 l-38 52 -72 1 -73 0 20 -35 c28 -49 26
-79 -5 -93 -38 -17 -53 -15 -66 11 -7 12 -25 38 -41 57 -15 19 -28 40 -28 47
0 10 -25 13 -96 13 -73 0 -93 -3 -88 -12z m264 -217 c0 -11 -39 -25 -47 -18
-3 3 -2 10 2 16 8 13 45 15 45 2z m33 -1947 c26 -9 47 -20 47 -25 0 -5 8 -9
19 -9 10 0 30 -9 44 -20 15 -12 49 -23 79 -27 29 -3 56 -11 60 -17 4 -6 11
-11 15 -11 24 -2 54 -19 63 -35 5 -10 35 -33 65 -50 30 -17 55 -34 55 -37 0
-4 -6 -14 -13 -22 -8 -9 -26 -54 -41 -101 -14 -47 -32 -100 -38 -119 -6 -19
-12 -55 -14 -80 -1 -25 -10 -64 -18 -86 -8 -22 -15 -50 -16 -62 0 -12 -4 -24
-9 -27 -5 -3 -12 -18 -16 -33 -3 -16 -30 -50 -59 -78 -44 -42 -56 -62 -76
-125 -13 -41 -32 -86 -41 -100 -9 -14 -24 -52 -34 -85 -12 -44 -28 -70 -55
-97 -22 -20 -43 -50 -47 -66 -12 -43 -96 -132 -126 -132 -52 0 -85 83 -61 152
8 23 18 46 22 52 14 18 40 95 63 181 11 44 35 105 53 135 18 30 38 66 45 80 6
14 22 30 33 35 49 22 23 51 -31 35 -26 -7 -36 -5 -61 17 -17 14 -49 29 -71 34
-23 5 -48 16 -56 24 -8 8 -26 18 -41 22 -15 3 -33 12 -40 19 -7 8 -30 18 -50
24 -20 6 -46 17 -56 25 -11 8 -27 15 -35 15 -9 0 -29 7 -44 15 -16 8 -50 21
-76 29 -51 15 -151 63 -151 72 0 28 77 105 137 135 20 10 51 19 68 19 40 0
135 71 165 124 26 45 195 215 225 226 20 7 29 5 118 -26z m-768 -544 c22 -11
53 -20 71 -20 17 0 37 -7 44 -15 7 -8 17 -15 23 -15 6 0 42 -15 81 -34 163
-78 179 -84 266 -103 14 -3 43 -14 66 -24 22 -10 45 -19 52 -19 18 0 34 -40
27 -68 -3 -15 -17 -38 -29 -52 -35 -38 -58 -109 -47 -146 14 -50 -1 -64 -68
-64 -50 0 -61 4 -83 28 -42 45 -52 71 -37 98 10 20 9 29 -7 59 -11 21 -24 33
-32 30 -8 -3 -38 -8 -68 -11 -48 -6 -58 -4 -79 16 -24 22 -25 22 -60 6 -19 -9
-40 -14 -45 -11 -6 4 -25 -3 -44 -14 -41 -26 -59 -26 -110 -2 -23 11 -52 22
-66 24 -14 1 -39 11 -57 20 -18 9 -52 17 -76 17 -40 0 -49 5 -82 41 l-36 41
98 94 c54 53 114 106 133 119 45 30 111 32 165 5z m-385 -316 c14 -1 27 -3 29
-3 2 -1 -8 -16 -23 -35 -14 -19 -26 -39 -26 -45 0 -6 -4 -11 -9 -11 -14 0 -31
-58 -31 -105 0 -37 5 -46 47 -83 50 -45 41 -54 -22 -22 -22 11 -74 30 -115 41
-75 21 -108 37 -144 71 -19 17 -19 19 -3 50 31 59 79 120 111 140 32 20 31 20
186 2z m1840 -14 c19 -5 67 -14 105 -20 155 -24 327 -100 411 -181 154 -147
192 -429 80 -583 -72 -99 -170 -161 -273 -174 -79 -9 -245 8 -289 31 -16 8
-42 17 -58 21 -28 7 -151 63 -326 150 -119 59 -163 85 -193 114 -26 25 -28 32
-25 82 5 52 23 98 114 285 13 28 24 54 24 59 0 20 85 184 108 209 l27 28 130
-6 c72 -4 146 -11 165 -15z m-1542 -118 c3 -9 -2 -13 -14 -10 -9 1 -19 9 -22
16 -3 9 2 13 14 10 9 -1 19 -9 22 -16z m612 -822 c0 -11 -4 -20 -10 -20 -5 0
-10 9 -10 20 0 11 5 20 10 20 6 0 10 -9 10 -20z m-1850 -520 c0 -5 -4 -10 -10
-10 -5 0 -10 5 -10 10 0 6 5 10 10 10 6 0 10 -4 10 -10z m-50 -64 c0 -18 -17
-29 -30 -21 -8 5 -7 11 1 21 15 18 29 18 29 0z"/>
<path d="M2564 4458 c-4 -6 0 -14 8 -19 9 -5 19 -26 23 -46 9 -50 95 -137 126
-128 26 9 22 53 -6 69 -26 14 -65 54 -65 67 0 5 -11 14 -25 19 -14 5 -25 16
-25 24 0 18 -27 29 -36 14z"/>
<path d="M2558 6126 c-15 -8 -42 -17 -60 -21 -18 -4 -50 -16 -70 -26 -21 -11
-45 -19 -55 -19 -10 0 -40 -11 -68 -25 -27 -13 -57 -25 -65 -25 -8 0 -28 -9
-45 -20 -16 -11 -41 -20 -55 -20 -14 0 -42 -9 -63 -20 -20 -11 -43 -20 -49
-20 -7 0 -35 -11 -63 -25 -27 -13 -61 -25 -73 -25 -13 0 -35 -9 -49 -20 -14
-11 -38 -20 -52 -20 -15 0 -36 -7 -47 -15 -12 -8 -41 -21 -65 -29 -40 -14 -45
-14 -56 1 -7 9 -13 20 -13 25 0 4 -7 8 -15 8 -10 0 -15 -10 -15 -33 0 -74 -65
-105 -84 -39 -5 18 -16 32 -24 32 -19 0 -163 -49 -177 -60 -5 -4 -26 -13 -45
-18 -19 -6 -65 -22 -102 -36 -90 -34 -192 -73 -253 -96 -27 -10 -75 -28 -105
-40 -70 -27 -151 -58 -215 -80 -27 -10 -63 -25 -80 -34 -16 -9 -40 -16 -53
-16 -12 0 -32 -10 -43 -21 -21 -21 -22 -29 -3 -111 5 -24 2 -29 -31 -42 -46
-20 -37 -36 19 -36 24 0 61 -7 82 -16 35 -15 42 -15 113 6 42 12 90 27 106 35
61 27 133 54 250 95 66 23 147 52 180 65 33 12 94 35 135 50 136 50 205 76
238 90 18 8 41 15 50 15 10 0 26 6 36 13 16 12 16 14 2 26 -20 17 -20 37 0 45
24 9 77 7 94 -4 11 -7 16 -4 20 13 6 21 97 76 130 77 8 0 33 9 55 20 22 11 49
19 60 20 11 0 34 9 51 19 17 10 44 22 61 25 17 4 48 16 69 27 21 10 44 19 51
19 7 0 27 9 45 20 18 11 43 20 54 20 12 0 32 9 46 19 13 11 42 23 64 26 21 4
46 13 54 20 8 7 32 15 54 18 21 3 46 13 55 20 9 8 31 18 49 22 46 10 112 55
112 77 0 11 -16 25 -44 38 -53 24 -63 24 -98 6z"/>
<path d="M235 5179 c-4 -6 -5 -13 -2 -16 8 -8 67 7 67 18 0 13 -57 11 -65 -2z"/>
<path d="M4016 3953 c-11 -11 -6 -23 9 -23 8 0 15 4 15 9 0 13 -16 22 -24 14z"/>
<path d="M1890 3780 c-12 -8 -10 -10 8 -10 13 0 20 4 17 10 -7 12 -6 12 -25 0z"/>
<path d="M2150 3211 c0 -24 14 -41 34 -41 36 0 38 12 6 32 -35 20 -40 22 -40
9z"/>
<path d="M2100 3120 c0 -16 4 -30 9 -30 12 0 24 37 16 50 -12 20 -25 10 -25
-20z"/>
<path d="M2067 3054 c-10 -11 -8 -64 2 -64 13 0 24 51 13 62 -4 4 -11 5 -15 2z"/>
<path d="M2011 2933 c-6 -21 -11 -43 -11 -48 0 -6 -9 -16 -20 -23 -11 -7 -20
-23 -20 -37 0 -13 -9 -32 -19 -42 -11 -10 -22 -35 -26 -56 -4 -20 -11 -40 -16
-43 -5 -3 -16 -20 -25 -37 -24 -52 -44 -91 -55 -107 -5 -8 -15 -26 -21 -40
-13 -26 -90 -146 -109 -168 -5 -7 -17 -28 -24 -46 -8 -18 -21 -36 -30 -39 -9
-4 -15 -19 -15 -37 0 -18 -6 -33 -15 -36 -8 -4 -15 -15 -15 -25 0 -12 5 -16
15 -13 8 4 15 11 15 18 0 6 8 19 18 28 9 9 27 31 40 50 56 82 44 77 109 41 50
-27 59 -37 67 -69 6 -27 6 -39 -3 -42 -6 -2 -11 -10 -11 -18 0 -8 -7 -17 -15
-20 -17 -7 -21 -44 -4 -44 6 0 30 20 55 44 34 34 49 43 66 38 23 -6 88 -41 98
-52 3 -3 46 -40 95 -82 50 -41 108 -97 130 -123 22 -26 46 -53 52 -60 26 -27
153 -185 153 -190 0 -3 20 -31 45 -64 25 -32 45 -63 45 -69 0 -5 9 -17 20 -27
11 -10 20 -24 20 -30 0 -7 9 -24 20 -38 11 -14 20 -32 20 -41 0 -9 9 -24 20
-33 11 -10 20 -26 20 -35 0 -10 15 -35 34 -55 l33 -36 124 2 c68 1 127 5 131
7 7 5 -10 53 -37 104 -8 14 -31 58 -51 98 -21 39 -42 72 -46 72 -4 0 -8 6 -8
13 0 8 -18 39 -40 70 -22 30 -40 62 -40 70 0 8 -11 22 -24 31 -14 8 -28 26
-32 38 -6 22 -83 120 -153 197 -17 19 -31 40 -31 47 0 7 -17 26 -37 41 -21 15
-43 35 -49 43 -32 42 -108 115 -184 177 -47 39 -118 102 -159 141 -67 63 -77
69 -99 61 -28 -11 -150 24 -158 45 -3 7 2 26 11 42 8 16 15 36 15 45 0 9 6 22
14 28 8 7 18 26 21 42 4 17 13 33 20 36 8 2 19 21 26 41 6 21 20 45 30 55 11
10 19 30 19 46 0 15 9 38 20 51 11 13 20 30 20 39 0 9 3 26 6 39 5 18 2 22
-14 22 -16 0 -24 -10 -31 -37z"/>
<path d="M1230 2568 c-46 -5 -99 -16 -118 -24 -19 -8 -42 -14 -52 -14 -19 0
-107 -45 -166 -85 -63 -43 -163 -135 -170 -157 -3 -11 -15 -29 -25 -39 -10
-10 -19 -26 -19 -35 0 -9 -9 -27 -20 -41 -12 -15 -20 -41 -20 -62 0 -24 -7
-42 -20 -54 -22 -18 -24 -46 -22 -247 0 -83 5 -114 21 -150 11 -25 21 -53 21
-63 0 -43 86 -193 158 -274 12 -14 22 -30 22 -34 0 -5 5 -9 12 -9 14 0 148
140 148 154 0 5 7 17 16 27 15 16 14 20 -8 51 -32 43 -53 90 -74 162 -47 162
31 403 176 540 141 132 226 170 368 163 45 -3 92 -12 110 -21 45 -23 69 -20
89 12 9 15 25 36 35 48 10 11 21 41 24 66 7 52 14 48 -106 72 -97 19 -272 25
-380 14z"/>
<path d="M139 2364 c-8 -11 -22 -23 -31 -27 -22 -8 -24 -37 -3 -37 8 0 15 5
15 10 0 6 9 19 21 31 11 11 19 25 17 31 -3 7 -10 3 -19 -8z"/>
<path d="M0 2210 c0 -11 7 -20 15 -20 8 0 15 9 15 20 0 11 -7 20 -15 20 -8 0
-15 -9 -15 -20z"/>
<path d="M1536 2065 c-3 -8 -2 -15 3 -15 5 0 14 7 21 15 10 12 10 15 -3 15 -8
0 -17 -7 -21 -15z"/>
<path d="M1485 2018 c-31 -32 -71 -86 -165 -223 -42 -62 -56 -81 -70 -96 -43
-47 -86 -103 -95 -124 -6 -13 -27 -43 -47 -67 -91 -107 -208 -258 -208 -268 0
-5 -11 -20 -25 -32 -14 -12 -25 -25 -25 -29 0 -4 -14 -22 -30 -39 l-31 -33
-24 23 -24 22 -57 -28 c-48 -25 -107 -80 -156 -149 -4 -5 -30 -35 -58 -65 -27
-30 -53 -63 -56 -72 -3 -10 -14 -18 -25 -18 -10 0 -28 -9 -38 -19 -10 -10 -30
-22 -43 -26 -12 -4 -30 -13 -38 -19 -8 -7 -39 -24 -69 -39 -49 -25 -60 -27
-127 -21 l-74 7 0 -125 0 -125 81 -6 c89 -7 191 5 284 33 85 26 283 127 328
166 20 19 42 34 49 34 33 0 284 236 328 308 27 44 61 42 174 -13 52 -25 98
-45 102 -45 5 -1 27 -9 49 -20 22 -11 48 -19 58 -20 10 0 32 -7 50 -17 31 -16
120 -41 222 -64 28 -6 82 -19 120 -29 39 -10 106 -23 150 -30 44 -6 103 -16
130 -20 28 -5 104 -14 170 -21 105 -10 125 -10 157 4 42 18 43 37 2 55 -13 7
-24 16 -24 22 0 6 11 15 24 22 35 15 40 38 16 62 -17 17 -42 23 -133 32 -292
29 -593 94 -777 169 -141 57 -209 96 -246 140 -35 43 -35 45 -22 80 7 22 24
43 40 51 16 8 28 20 29 27 0 6 2 26 4 43 7 48 -18 63 -55 36 -16 -12 -34 -22
-40 -22 -5 0 -10 -11 -10 -24 0 -20 -10 -29 -57 -51 -67 -30 -88 -27 -80 13 4
15 10 48 15 75 5 26 18 57 29 70 11 12 23 29 27 37 3 8 22 35 41 60 19 25 39
55 45 68 5 12 14 22 20 22 6 0 15 11 20 25 5 14 17 28 25 31 8 4 15 11 15 16
0 5 9 22 21 36 74 96 109 146 109 157 0 7 10 24 21 39 31 39 10 50 -26 14z
m-550 -869 c0 -17 -8 -26 -27 -33 -38 -14 -44 -3 -17 33 26 36 44 36 44 0z
m475 -149 c0 -13 -20 -13 -40 0 -12 8 -9 10 13 10 15 0 27 -4 27 -10z m139
-31 c17 -6 31 -15 31 -19 0 -4 33 -11 73 -15 39 -4 94 -16 120 -26 28 -11 73
-19 108 -19 33 0 76 -7 97 -16 20 -8 91 -20 157 -25 66 -6 138 -16 160 -24 22
-8 51 -16 64 -17 14 -2 26 -9 29 -15 5 -17 -52 -17 -103 1 -22 8 -92 17 -155
21 -63 4 -127 13 -141 21 -15 7 -64 16 -110 20 -46 4 -106 15 -134 25 -27 11
-69 19 -92 19 -30 0 -49 6 -63 20 -11 11 -31 20 -44 20 -45 0 -86 13 -86 26 0
17 44 18 89 3z m-919 -7 c0 -13 -12 -22 -22 -16 -10 6 -1 24 13 24 5 0 9 -4 9
-8z m-40 -56 c0 -15 -18 -31 -26 -23 -7 7 7 37 17 37 5 0 9 -6 9 -14z m-240
-200 c0 -2 -7 -6 -15 -10 -8 -3 -15 -1 -15 4 0 6 7 10 15 10 8 0 15 -2 15 -4z"/>
<path d="M3180 1121 c0 -4 14 -41 31 -82 43 -102 49 -131 50 -234 1 -202 -40
-319 -153 -436 -77 -81 -96 -91 -223 -118 -64 -14 -105 -28 -112 -39 -38 -52
-54 -70 -110 -131 -35 -37 -63 -71 -63 -74 0 -4 58 -7 129 -7 121 0 130 1 136
20 3 11 10 20 15 20 4 0 25 23 45 50 20 28 41 50 46 50 14 0 11 -48 -5 -73 -8
-12 -17 -32 -21 -44 -6 -23 -5 -23 84 -23 70 0 91 3 91 14 0 22 62 158 88 194
13 19 44 42 67 52 24 10 62 30 85 45 24 15 58 32 76 39 18 6 63 40 100 76 72
70 105 131 109 205 2 22 7 51 12 64 10 26 -12 143 -29 149 -4 2 -8 10 -8 17 0
8 -12 27 -27 43 -16 16 -47 50 -70 76 -24 26 -51 46 -63 46 -11 0 -37 9 -57
20 -21 11 -45 20 -55 20 -9 0 -21 6 -25 14 -4 8 -19 17 -33 19 -14 3 -38 12
-55 21 -33 18 -55 21 -55 7z"/>
<path d="M2875 620 c4 -6 11 -8 16 -5 14 9 11 15 -7 15 -8 0 -12 -5 -9 -10z"/>
</g>
</svg>
